<svg
  width="120"
  height="48"
  viewBox="0 0 60 24"
  fill="currentColor"
  xmlns="http://www.w3.org/2000/svg"
>
  <path d="M4.9902 20.19531 c-2.2559 0 -4.0039 -0.88867 -4.3652 -2.793 l2.3535 -0.66406 c0.30273 1.0742 1.0645 1.4941 2.0117 1.4941 c0.69336 0 1.4453 -0.21484 1.4258 -1.0059 c-0.0097656 -1.0449 -1.5918 -1.1328 -3.1836 -1.6992 c-1.2012 -0.41992 -2.3535 -1.0645 -2.3535 -2.7539 c0 -2.0605 1.709 -3.0078 3.9355 -3.0078 c1.9531 0 3.584 0.74219 3.9746 2.6563 l-2.1777 0.48828 c-0.30273 -0.9375 -0.9668 -1.2695 -1.7871 -1.2695 c-0.74219 0 -1.377 0.26367 -1.377 0.88867 c0 0.79102 1.1621 0.94727 2.4219 1.2891 c1.5527 0.41992 3.252 1.0938 3.252 3.2422 c0 2.3047 -1.9629 3.1348 -4.1309 3.1348 z M14.8828 20 c-1.9531 0 -3.0664 -1.1328 -3.0664 -3.1348 l0 -4.7461 l-1.9727 0 l0 -2.1582 l0.63477 0 c1.0645 0 1.6504 -0.41016 1.6504 -1.9141 l0 -1.3281 l2.5391 0 l0 3.2422 l2.0703 0 l0 2.1582 l-2.0703 0 l0 4.4434 c0 0.89844 0.43945 1.2988 1.1621 1.2988 l0.9082 0 l0 2.1387 l-1.8555 0 z M23.5937375 20.19531 c-3.1934 0 -5.498 -1.9434 -5.498 -5.2246 c0 -3.2617 2.2852 -5.2051 5.498 -5.2051 c3.2324 0 5.5078 1.9434 5.5078 5.2051 c0 3.2813 -2.2852 5.2246 -5.5078 5.2246 z M23.5644375 17.959 c1.6309 0 2.7441 -1.1914 2.7441 -2.9883 s-1.1133 -2.9883 -2.7441 -2.9883 c-1.5723 0 -2.6758 1.1914 -2.6758 2.9883 s1.1035 2.9883 2.6758 2.9883 z M33.886728125 11.5527 c0.50781 -0.88867 1.8262 -1.709 3.2813 -1.709 l0 2.5098 c-2.1289 0 -3.1445 0.625 -3.1445 2.7539 l0 4.8926 l-2.832 0 l0 -10.039 l2.6953 0 l0 1.5918 z M40.25388125 8.457 c-0.88867 0 -1.6309 -0.72266 -1.6309 -1.6211 c0 -0.88867 0.74219 -1.6113 1.6309 -1.6113 c0.86914 0 1.6113 0.72266 1.6113 1.6113 c0 0.89844 -0.74219 1.6211 -1.6113 1.6211 z M38.81838125 20 l0 -10.039 l2.832 0 l0 10.039 l-2.832 0 z M43.18359375 20 l4.1211 -5.0293 l-4.1211 -5.0098 l3.5156 0 l2.3047 3.1641 l2.3242 -3.1641 l3.4863 0 l-4.1309 5.0195 l4.1309 5.0195 l-3.4863 0 l-2.3047 -3.1445 l-2.3145 3.1445 l-3.5254 0 z"/>
</svg>